# AST/ASF file generated using VICON BodyLanguage
# -----------------------------------------------
:version 1.10
:name VICON
:units
  mass 1.0
  length 0.45
  angle deg
:documentation
   .ast/.asf automatically generated from VICON data using
   VICON BodyBuilder and BodyLanguage model FoxedUp or BRILLIANT.MOD
:root
   order TX TY TZ RX RY RZ
   axis XYZ
   position 0 0 0  
   orientation 0 0 0 
:bonedata
  begin
     id 1 
     name lhipjoint
     direction 0.528046 -0.759594 0.379717 
     length 2.39752 
     axis 0 0 0  XYZ
  end
  begin
     id 2 
     name lfemur
     direction 0.34202 -0.939693 0  
     length 7.31175  
     axis 0 0 20  XYZ
    dof rx ry rz
    limits (-160.0 20.0)
           (-70.0 70.0)
           (-60.0 70.0)
  end
  begin
     id 3 
     name ltibia
     direction 0.34202 -0.939693 0   
     length 7.52482   
     axis 0 0 20   XYZ
    dof rx
    limits (-10.0 170.0)
  end
  begin
     id 4 
     name lfoot
     direction 0.0675379 -0.185559 0.980309   
     length 2.00961   
     axis -90 7.62852e-016 20   XYZ
    dof rx rz
    limits (-45.0 90.0)
           (-70.0 20.0)
  end
  begin
     id 5 
     name ltoes
     direction 1.5352e-011 -4.22286e-011 1   
     length 1.01383   
     axis -90 7.62852e-016 20   XYZ
    dof rx
    limits (-90.0 20.0)
  end
  begin
     id 6 
     name rhipjoint
     direction -0.510274 -0.769251 0.384544   
     length 2.36742  
     axis 0 0 0  XYZ 
  end
  begin
     id 7 
     name rfemur
     direction -0.34202 -0.939693 0   
     length 7.45325   
     axis 0 0 -20   XYZ
    dof rx ry rz
    limits (-160.0 20.0)
           (-70.0 70.0)
           (-70.0 60.0)
  end
  begin
     id 8 
     name rtibia
     direction -0.34202 -0.939693 0   
     length 7.49587   
     axis 0 0 -20   XYZ
    dof rx
    limits (-10.0 170.0)
 end
 begin
     id 9 
     name rfoot
     direction -0.106475 -0.292536 0.950308   
     length 2.20898  
     axis -90 -7.62852e-016 -20   XYZ
    dof rx rz
    limits (-45.0 90.0)
           (-20.0 70.0)
  end
  begin
     id 10 
     name rtoes
     direction -1.53597e-011 -4.22023e-011 1   
     length 1.10065   
     axis -90 -7.62852e-016 -20   XYZ
    dof rx
    limits (-90.0 20.0)
  end
  begin
     id 11 
     name lowerback
     direction 0.0260024 0.998026 -0.0571652   
     length 2.11214   
     axis 0 0 0   XYZ
    dof rx ry rz
    limits (-20.0 45.0)
           (-30.0 30.0)
           (-30.0 30.0)
  end
  begin
     id 12 
     name upperback
     direction 0.0216202 0.999542 -0.0211766   
     length 2.11689   
     axis 0 0 0   XYZ
    dof rx ry rz
    limits (-20.0 45.0)
           (-30.0 30.0)
           (-30.0 30.0)
  end
  begin
     id 13 
     name thorax
     direction 0.00883312 0.999944 0.00589057   
     length 2.11821   
     axis 0 0 0   XYZ
    dof rx ry rz
    limits (-20.0 45.0)
           (-30.0 30.0)
           (-30.0 30.0)
  end
  begin
     id 14 
     name lowerneck
     direction -0.059386 0.994433 0.0870401   
     length 1.81176   
     axis 0 0 0   XYZ
    dof rx ry rz
    limits (-20.0 45.0)
           (-30.0 30.0)
           (-30.0 30.0)
  end
  begin
     id 15 
     name upperneck
     direction 0.0506457 0.97328 -0.223967   
     length 1.82382   
     axis 0 0 0   XYZ
    dof rx ry rz
    limits (-20.0 45.0)
           (-30.0 30.0)
           (-30.0 30.0)
  end
  begin
     id 16
     name head
     direction 0.0205902 0.996147 -0.0852487  
     length 1.84805  
     axis 0 0 0   XYZ
    dof rx ry rz
    limits (-20.0 45.0)
           (-30.0 30.0)
           (-30.0 30.0)
  end
  begin
     id 17 
     name lclavicle
     direction 0.949493 0.303881 -0.0782325  
     length 3.60584  
     axis 0 0 0   XYZ
    dof ry rz
    limits (-20.0 10.0)
           (0.0 20.0)
  end
  begin
     id 18 
     name lhumerus
     direction 1 -4.48965e-011 1.48782e-027   
     length 4.95681   
     axis 180 -30 -90   XYZ
    dof rx ry rz
    limits (-60.0 90.0)
           (-90.0 90.0)
           (-90.0 90.0)
  end
  begin
     id 19
     name lradius
     direction 1 -4.48952e-011 2.06528e-027   
     length 3.40915   
     axis 180 -30 -90   XYZ
    dof rx
    limits (-10.0 170.0)
  end
  begin
     id 20
     name lwrist
     direction 1 -4.48964e-011 1.28021e-027   
     length 1.70457   
     axis -1.61767e-015 90 90   XYZ
    dof ry
    limits (-180.0 0.0)
 end
  begin
     id 21 
     name lhand
     direction 1 -4.49094e-011 2.54887e-027   
     length 0.616403   
     axis -1.63363e-015 90 90   XYZ
    dof rx rz
    limits (-90.0 90.0)
           (-45.0 45.0)
  end
  begin
     id 22 
     name lfingers
     direction 1 -4.49002e-011 5.11407e-027   
     length 0.49696   
     axis -3.26723e-015 90 90   XYZ
    dof rx
    limits (0.0 90.0)
  end
  begin
     id 23
     name lthumb
     direction 0.707107 -6.34998e-011 0.707107   
     length 0.713539   
     axis -90 45 -2.25915e-014   XYZ
    dof rx rz
    limits (-45.0 45.0)
           (-45.0 45.0)
  end
  begin
     id 24 
     name rclavicle
     direction -0.937751 0.334612 -0.0930482   
     length 3.46287  
     axis 0 0 0   XYZ 
    dof ry rz
    limits (-10.0 20.0)
           (-20.0 0.0)
  end
  begin
     id 25 
     name rhumerus
     direction -1 -4.48962e-011 3.59972e-027  
     length 5.352   
     axis 180 30 90   XYZ
    dof rx ry rz
    limits (-90.0 60.0)
           (-90.0 90.0)
           (-90.0 90.0)
  end
  begin
     id 26 
     name rradius
     direction -1 -4.48987e-011 -3.76925e-027   
     length 3.43721   
     axis 180 30 90   XYZ
    dof rx
    limits (-10.0 170.0)
  end
  begin
     id 27 
     name rwrist
     direction -1 -4.48943e-011 1.28112e-027   
     length 1.7186   
     axis -1.61767e-015 -90 -90   XYZ
    dof ry
    limits (-180.0 0.0)
  end
  begin
     id 28
     name rhand
     direction -1 -4.49027e-011 2.55483e-027   
     length 0.72009   
     axis -1.63363e-015 -90 -90   XYZ
    dof rx rz
    limits (-90.0 90.0)
           (-45.0 45.0)
  end
  begin
     id 29
     name rfingers
     direction -1 -4.48827e-011 5.14506e-027   
     length 0.580555   
     axis -3.26723e-015 -90 -90   XYZ
    dof rx
    limits (0.0 90.0)
  end
  begin
     id 30
     name rthumb
     direction -0.707107 -6.34936e-011 0.707107   
     length 0.833564   
     axis -90 -45 2.25915e-014   XYZ
    dof rx rz
    limits (-45.0 45.0)
           (-45.0 45.0)
  end
:hierarchy
  begin
    root lhipjoint rhipjoint lowerback
    lhipjoint lfemur
    lfemur ltibia
    ltibia lfoot
    lfoot ltoes
    rhipjoint rfemur
    rfemur rtibia
    rtibia rfoot
    rfoot rtoes
    lowerback upperback
    upperback thorax
    thorax lowerneck lclavicle rclavicle
    lowerneck upperneck
    upperneck head
    lclavicle lhumerus
    lhumerus lradius
    lradius lwrist
    lwrist lhand lthumb
    lhand lfingers
    rclavicle rhumerus
    rhumerus rradius
    rradius rwrist
    rwrist rhand rthumb
    rhand rfingers
  end

#!OML:ASF H:\Terrain\Patient Classification 1\Terrain2\Thursday\justin.ASF
:FULLY-SPECIFIED
:DEGREES
719
root 17.6153 24.1365 22.0701 184.427 34.3931 184.793
lowerback 5.67626 1.55219 5.67304
upperback 2.13291 2.66079 3.71975
thorax -0.907927 1.43596 0.486831
lowerneck -14.1249 -0.168098 -6.5519
upperneck 38.5575 6.81125 -2.51999
head 16.1364 2.72607 1.59699
rclavicle -3.93594e-014 -9.54166e-015
rhumerus -30.0283 -0.483439 -80.6714
rradius 28.6093
rwrist -11.4055
rhand -19.6975 13.346
rfingers 7.12502
rthumb 6.63186 -16.5301
lclavicle -3.93594e-014 -9.54166e-015
lhumerus -33.0456 5.70745 86.4288
lradius 35.9477
lwrist 5.66351
lhand -18.6587 23.2092
lfingers 7.12502
lthumb 7.63457 53.0514
rfemur -7.95676 -20.5705 27.1271
rtibia 32.2404
rfoot -23.8358 -23.9661
rtoes 12.2691
lfemur -14.8732 10.0419 -18.0394
ltibia 29.5238
lfoot -12.7318 6.71925
ltoes -1.49306
720
root 17.6163 24.1407 22.0546 184.068 33.6171 184.353
lowerback 5.78117 1.60967 5.38509
upperback 2.10976 2.71714 3.56277
thorax -0.993911 1.4565 0.476782
lowerneck -14.2474 -0.324101 -6.57607
upperneck 38.6978 6.57067 -2.34395
head 16.2323 2.64774 1.64586
rclavicle -3.27995e-015 -5.40694e-014
rhumerus -29.9638 -1.06604 -80.587
rradius 28.3299
rwrist -11.1996
rhand -19.6579 13.1502
rfingers 7.12502
rthumb 6.67005 -16.7248
lclavicle -3.27995e-015 -5.40694e-014
lhumerus -33.043 5.87272 86.179
lradius 35.7299
lwrist 5.37171
lhand -16.7326 24.9392
lfingers 7.12502
lthumb 9.49339 54.7053
rfemur -7.84414 -20.7738 26.5828
rtibia 32.5828
rfoot -24.0689 -23.4967
rtoes 13.1455
lfemur -14.7137 10.1089 -18.4403
ltibia 29.3072
lfoot -12.6197 5.86209
ltoes -1.30392
721
root 17.6199 24.1445 22.0402 183.718 32.8574 184.037
lowerback 5.8638 1.51834 5.05712
upperback 2.1328 2.58214 3.56423
thorax -1.0349 1.38768 0.665834
lowerneck -14.2078 -0.287428 -6.84161
upperneck 38.7034 6.65706 -2.14649
head 16.2055 2.68143 1.79323
rclavicle -2.56432e-014 6.12257e-014
rhumerus -29.8069 -1.38249 -80.3408
rradius 27.892
rwrist -10.5738
rhand -19.4313 13.4413
rfingers 7.12502
rthumb 6.88878 -16.4266
lclavicle -2.56432e-014 6.12257e-014
lhumerus -33.2807 6.51905 85.9523
lradius 35.7032
lwrist 5.04881
lhand -17.2912 24.0561
lfingers 7.12502
lthumb 8.95435 53.8461
rfemur -7.67943 -21.0281 26.1183
rtibia 32.9046
rfoot -23.8628 -23.1923
rtoes 13.0714
lfemur -14.5145 10.174 -18.681
ltibia 29.2012
lfoot -12.5823 4.94162
ltoes 0.648154
722
root 17.621 24.1499 22.0218 183.633 32.1348 184.121
lowerback 5.83059 1.48212 5.16065
upperback 2.17799 2.54041 3.57784
thorax -0.967006 1.37127 0.6272
lowerneck -14.0746 -0.27933 -6.83491
upperneck 38.5419 6.64844 -2.17268
head 16.0904 2.6882 1.77181
rclavicle 1.73937e-014 1.19271e-014
rhumerus -29.6127 -2.06155 -80.0689
rradius 27.4164
rwrist -9.67762
rhand -18.9991 13.9703
rfingers 7.12502
rthumb 7.306 -15.8835
lclavicle 1.73937e-014 1.19271e-014
lhumerus -33.3719 6.67553 85.7852
lradius 35.5565
lwrist 4.71792
lhand -18.5612 21.9883
lfingers 7.12502
lthumb 7.72866 51.8271
rfemur -7.68983 -21.2449 26.0666
rtibia 33.2359
rfoot -22.6193 -23.7049
rtoes 9.8581
lfemur -14.4403 9.75004 -18.5465
ltibia 29.1688
lfoot -12.5889 4.43556
ltoes 3.65776
723
root 17.6195 24.1558 22.0059 183.563 31.3153 184.007
lowerback 5.7481 1.6357 5.28384
upperback 2.17964 2.72827 3.33134
thorax -0.896055 1.46196 0.296986
lowerneck -14.0061 -0.481626 -6.44708
upperneck 38.3823 6.18386 -2.20407
head 16.0081 2.55267 1.60582
rclavicle 2.82274e-014 2.62396e-014
rhumerus -29.5756 -3.3727 -79.9198
rradius 27.1914
rwrist -9.12679
rhand -18.578 14.4051
rfingers 7.12502
rthumb 7.71243 -15.4342
lclavicle 2.82274e-014 2.62396e-014
lhumerus -33.1659 5.87526 85.6477
lradius 35.1663
lwrist 4.7654
lhand -19.2881 20.6487
lfingers 7.12502
lthumb 7.02703 50.5121
rfemur -7.84588 -21.3856 25.8949
rtibia 33.577
rfoot -22.0307 -24.1085
rtoes 8.48086
lfemur -14.5967 9.60838 -18.6315
ltibia 29.156
lfoot -12.4871 3.59188
ltoes 5.96438
724
root 17.6187 24.1629 21.99 183.389 30.4596 183.658
lowerback 5.72225 1.70299 4.99016
upperback 2.13415 2.78986 3.21919
thorax -0.934805 1.48625 0.340557
lowerneck -14.1247 -0.677424 -6.32819
upperneck 38.4173 5.91744 -2.29342
head 16.0691 2.4492 1.50763
rclavicle 3.84648e-014 6.12257e-014
rhumerus -29.6631 -4.08484 -79.7044
rradius 27.2086
rwrist -9.12428
rhand -18.6386 14.3157
rfingers 7.12502
rthumb 7.65397 -15.5258
lclavicle 3.84648e-014 6.12257e-014
lhumerus -33.182 5.69213 85.6301
lradius 34.8454
lwrist 4.99142
lhand -19.8614 19.8571
lfingers 7.12502
lthumb 6.47359 49.7382
rfemur -7.89829 -21.4761 25.4588
rtibia 33.9579
rfoot -22.9199 -23.5548
rtoes 12.0582
lfemur -14.7382 10.0046 -18.9714
ltibia 29.1331
lfoot -12.3287 2.22417
ltoes 7.26861
